<svg width="1600" height="1000" viewBox="0 0 1600 1000" fill="none" xmlns="http://www.w3.org/2000/svg">
  <rect width="1600" height="1000" rx="48" fill="#081120"/>
  <rect width="1600" height="1000" rx="48" fill="url(#paint0_linear)"/>
  <circle cx="1296" cy="214" r="210" fill="url(#paint1_radial)"/>
  <rect x="206" y="604" width="1188" height="198" rx="30" fill="#0A162C" stroke="#5E84FF" stroke-opacity="0.22" stroke-width="4"/>
  <rect x="276" y="520" width="180" height="84" rx="24" fill="#102341"/>
  <rect x="508" y="470" width="206" height="134" rx="24" fill="#102341"/>
  <rect x="770" y="428" width="172" height="176" rx="24" fill="#102341"/>
  <rect x="996" y="492" width="230" height="112" rx="24" fill="#102341"/>
  <path d="M798 250L900 600H696L798 250Z" fill="#15386B"/>
  <path d="M798 250V142" stroke="#7EA4FF" stroke-width="18" stroke-linecap="round"/>
  <path d="M640 294C692 236 734 210 798 184" stroke="#A8C0FF" stroke-width="10" stroke-linecap="round"/>
  <path d="M956 294C904 236 862 210 798 184" stroke="#A8C0FF" stroke-width="10" stroke-linecap="round"/>
  <path d="M572 358C654 278 716 244 798 220" stroke="#87ADFF" stroke-opacity="0.66" stroke-width="8" stroke-linecap="round"/>
  <path d="M1024 358C942 278 880 244 798 220" stroke="#87ADFF" stroke-opacity="0.66" stroke-width="8" stroke-linecap="round"/>
  <g opacity="0.22">
    <path d="M0 250H1600" stroke="#A3BEFF" stroke-width="2"/>
    <path d="M0 500H1600" stroke="#A3BEFF" stroke-width="2"/>
    <path d="M0 750H1600" stroke="#A3BEFF" stroke-width="2"/>
    <path d="M300 0V1000" stroke="#A3BEFF" stroke-width="2"/>
    <path d="M800 0V1000" stroke="#A3BEFF" stroke-width="2"/>
    <path d="M1300 0V1000" stroke="#A3BEFF" stroke-width="2"/>
  </g>
  <defs>
    <linearGradient id="paint0_linear" x1="800" y1="0" x2="800" y2="1000" gradientUnits="userSpaceOnUse">
      <stop stop-color="#0C1831"/>
      <stop offset="1" stop-color="#08101D"/>
    </linearGradient>
    <radialGradient id="paint1_radial" cx="0" cy="0" r="1" gradientUnits="userSpaceOnUse" gradientTransform="translate(1296 214) rotate(90) scale(210)">
      <stop stop-color="#5E84FF"/>
      <stop offset="1" stop-color="#5E84FF" stop-opacity="0"/>
    </radialGradient>
  </defs>
</svg>
