<svg width="1600" height="1000" viewBox="0 0 1600 1000" fill="none" xmlns="http://www.w3.org/2000/svg">
  <rect width="1600" height="1000" rx="48" fill="#07101E"/>
  <rect width="1600" height="1000" rx="48" fill="url(#paint0_linear)"/>
  <circle cx="1268" cy="194" r="220" fill="url(#paint1_radial)"/>
  <rect x="160" y="164" width="1280" height="672" rx="40" fill="#0A162B" stroke="#5F84FF" stroke-opacity="0.22" stroke-width="4"/>
  <rect x="236" y="246" width="522" height="314" rx="30" fill="#102443"/>
  <rect x="842" y="246" width="522" height="314" rx="30" fill="#102443"/>
  <rect x="236" y="612" width="1128" height="140" rx="30" fill="#0E203C"/>
  <rect x="296" y="676" width="230" height="16" rx="8" fill="#A9C1FF"/>
  <rect x="582" y="676" width="230" height="16" rx="8" fill="#A9C1FF" fill-opacity="0.7"/>
  <rect x="868" y="676" width="230" height="16" rx="8" fill="#A9C1FF" fill-opacity="0.58"/>
  <path d="M338 392H654" stroke="#A8C0FF" stroke-width="18" stroke-linecap="round"/>
  <path d="M944 392H1260" stroke="#A8C0FF" stroke-width="18" stroke-linecap="round"/>
  <path d="M338 438H598" stroke="#A8C0FF" stroke-opacity="0.58" stroke-width="14" stroke-linecap="round"/>
  <path d="M944 438H1184" stroke="#A8C0FF" stroke-opacity="0.58" stroke-width="14" stroke-linecap="round"/>
  <circle cx="1266" cy="278" r="52" fill="#16366A"/>
  <circle cx="1180" cy="278" r="52" fill="#16366A"/>
  <circle cx="1094" cy="278" r="52" fill="#16366A"/>
  <path d="M1094 744C1128 708 1170 690 1220 690C1278 690 1326 716 1364 764" stroke="#7EA4FF" stroke-width="10" stroke-linecap="round"/>
  <g opacity="0.18">
    <path d="M0 250H1600" stroke="#A3BEFF" stroke-width="2"/>
    <path d="M0 500H1600" stroke="#A3BEFF" stroke-width="2"/>
    <path d="M0 750H1600" stroke="#A3BEFF" stroke-width="2"/>
    <path d="M320 0V1000" stroke="#A3BEFF" stroke-width="2"/>
    <path d="M800 0V1000" stroke="#A3BEFF" stroke-width="2"/>
    <path d="M1280 0V1000" stroke="#A3BEFF" stroke-width="2"/>
  </g>
  <defs>
    <linearGradient id="paint0_linear" x1="800" y1="0" x2="800" y2="1000" gradientUnits="userSpaceOnUse">
      <stop stop-color="#0B162C"/>
      <stop offset="1" stop-color="#08111E"/>
    </linearGradient>
    <radialGradient id="paint1_radial" cx="0" cy="0" r="1" gradientUnits="userSpaceOnUse" gradientTransform="translate(1268 194) rotate(90) scale(220)">
      <stop stop-color="#5F84FF"/>
      <stop offset="1" stop-color="#5F84FF" stop-opacity="0"/>
    </radialGradient>
  </defs>
</svg>
