<svg width="1600" height="1000" viewBox="0 0 1600 1000" fill="none" xmlns="http://www.w3.org/2000/svg">
  <rect width="1600" height="1000" rx="48" fill="#07101F"/>
  <rect width="1600" height="1000" rx="48" fill="url(#paint0_linear)"/>
  <circle cx="1290" cy="190" r="220" fill="url(#paint1_radial)" fill-opacity="0.9"/>
  <circle cx="320" cy="810" r="270" fill="url(#paint2_radial)" fill-opacity="0.7"/>
  <g opacity="0.28">
    <path d="M0 210H1600" stroke="#9BB8FF" stroke-width="2"/>
    <path d="M0 430H1600" stroke="#9BB8FF" stroke-width="2"/>
    <path d="M0 650H1600" stroke="#9BB8FF" stroke-width="2"/>
    <path d="M280 0V1000" stroke="#9BB8FF" stroke-width="2"/>
    <path d="M800 0V1000" stroke="#9BB8FF" stroke-width="2"/>
    <path d="M1320 0V1000" stroke="#9BB8FF" stroke-width="2"/>
  </g>
  <rect x="126" y="146" width="598" height="708" rx="36" fill="#0A162C" stroke="#5F84FF" stroke-opacity="0.26" stroke-width="4"/>
  <rect x="172" y="210" width="236" height="182" rx="28" fill="#112646"/>
  <rect x="442" y="210" width="236" height="182" rx="28" fill="#112646"/>
  <rect x="172" y="430" width="506" height="136" rx="28" fill="#0E203D"/>
  <rect x="172" y="604" width="506" height="188" rx="28" fill="#0E203D"/>
  <rect x="876" y="188" width="588" height="246" rx="36" fill="#0A162C" stroke="#5F84FF" stroke-opacity="0.2" stroke-width="4"/>
  <rect x="928" y="254" width="210" height="122" rx="24" fill="#12294B"/>
  <rect x="1172" y="254" width="240" height="122" rx="24" fill="#12294B"/>
  <rect x="876" y="500" width="588" height="316" rx="36" fill="#0A162C" stroke="#5F84FF" stroke-opacity="0.2" stroke-width="4"/>
  <circle cx="1010" cy="660" r="74" fill="#17386D"/>
  <circle cx="1182" cy="660" r="74" fill="#17386D"/>
  <circle cx="1354" cy="660" r="74" fill="#17386D"/>
  <path d="M1010 586V734" stroke="#A8C0FF" stroke-width="10" stroke-linecap="round"/>
  <path d="M1182 586V734" stroke="#A8C0FF" stroke-width="10" stroke-linecap="round"/>
  <path d="M1354 586V734" stroke="#A8C0FF" stroke-width="10" stroke-linecap="round"/>
  <path d="M248 300H334" stroke="#8DB0FF" stroke-width="18" stroke-linecap="round"/>
  <path d="M248 338H356" stroke="#8DB0FF" stroke-opacity="0.6" stroke-width="14" stroke-linecap="round"/>
  <path d="M248 476H610" stroke="#8DB0FF" stroke-width="18" stroke-linecap="round"/>
  <path d="M248 514H552" stroke="#8DB0FF" stroke-opacity="0.56" stroke-width="14" stroke-linecap="round"/>
  <path d="M248 690H610" stroke="#8DB0FF" stroke-width="18" stroke-linecap="round"/>
  <path d="M248 730H566" stroke="#8DB0FF" stroke-opacity="0.56" stroke-width="14" stroke-linecap="round"/>
  <path d="M980 314H1082" stroke="#9AB7FF" stroke-width="18" stroke-linecap="round"/>
  <path d="M1218 314H1320" stroke="#9AB7FF" stroke-width="18" stroke-linecap="round"/>
  <path d="M944 880C1046 820 1136 790 1240 790C1344 790 1412 816 1496 864" stroke="#6A94FF" stroke-opacity="0.55" stroke-width="8" stroke-linecap="round"/>
  <defs>
    <linearGradient id="paint0_linear" x1="800" y1="0" x2="800" y2="1000" gradientUnits="userSpaceOnUse">
      <stop stop-color="#0A1428"/>
      <stop offset="1" stop-color="#08101E"/>
    </linearGradient>
    <radialGradient id="paint1_radial" cx="0" cy="0" r="1" gradientUnits="userSpaceOnUse" gradientTransform="translate(1290 190) rotate(90) scale(220)">
      <stop stop-color="#5F84FF"/>
      <stop offset="1" stop-color="#5F84FF" stop-opacity="0"/>
    </radialGradient>
    <radialGradient id="paint2_radial" cx="0" cy="0" r="1" gradientUnits="userSpaceOnUse" gradientTransform="translate(320 810) rotate(90) scale(270)">
      <stop stop-color="#1C5DE3"/>
      <stop offset="1" stop-color="#1C5DE3" stop-opacity="0"/>
    </radialGradient>
  </defs>
</svg>
